<svg xmlns="http://www.w3.org/2000/svg" version="1.1" xmlns:xlink="http://www.w3.org/1999/xlink" xmlns:svgjs="http://svgjs.dev/svgjs" width="2000" height="1999" viewBox="0 0 2000 1999"><g transform="matrix(1,0,0,1,-0.431486880466764,-0.4312711370263287)"><svg viewBox="0 0 343 343" data-background-color="#ffffff" preserveAspectRatio="xMidYMid meet" height="1999" width="2000" xmlns="http://www.w3.org/2000/svg" xmlns:xlink="http://www.w3.org/1999/xlink"><g id="tight-bounds" transform="matrix(1,0,0,1,0.0740000000000407,0.07400000000001228)"><svg viewBox="0 0 342.85155851775386 342.85155851775386" height="342.85155851775386" width="342.85155851775386"><g><svg></svg></g><g><svg viewBox="0 0 342.85155851775386 342.85155851775386" height="342.85155851775386" width="342.85155851775386"><g><path d="M0 171.426c0-94.676 76.75-171.426 171.426-171.426 94.676 0 171.426 76.75 171.426 171.426 0 94.676-76.75 171.426-171.426 171.426-94.676 0-171.426-76.75-171.426-171.426zM171.426 326.801c85.811 0 155.375-69.564 155.375-155.375 0-85.811-69.564-155.375-155.375-155.376-85.811 0-155.375 69.564-155.376 155.376 0 85.811 69.564 155.375 155.376 155.375z" data-fill-palette-color="tertiary" fill="#000000" stroke="transparent"></path><ellipse rx="164.56874808852186" ry="164.56874808852186" cx="171.42577925887693" cy="171.42577925887693" fill="#000000" stroke="transparent" stroke-width="0" fill-opacity="1" data-fill-palette-color="tertiary"></ellipse></g><g transform="matrix(1,0,0,1,64.84655864529837,82.43618028836454)"><svg viewBox="0 0 213.1584412271571 177.97919794102478" height="177.97919794102478" width="213.1584412271571"><g><svg viewBox="0 0 213.15844122715714 177.9791979410248" height="177.97919794102478" width="213.1584412271571"><g><svg viewBox="0 0 213.15844122715714 177.9791979410248" height="177.9791979410248" width="213.15844122715714"><g id="textblocktransform"><svg viewBox="0 0 213.15844122715714 177.9791979410248" height="177.9791979410248" width="213.15844122715714" id="textblock"><g><svg viewBox="0 0 213.15844122715714 177.9791979410248" height="177.9791979410248" width="213.15844122715714"><g transform="matrix(1,0,0,1,0,0)"><svg width="213.15844122715714" viewBox="1.7 -37.7 46.05 38.45" height="177.9791979410248" data-palette-color="#ffffff"><path d="M15.8-37.7L21.95-37.05 21.95 0 16.5 0 16.2-3.05Q13.85 0.75 10.15 0.75L10.15 0.75Q6.05 0.75 3.88-2.93 1.7-6.6 1.7-13.2L1.7-13.2Q1.7-17.4 2.83-20.58 3.95-23.75 5.95-25.45 7.95-27.15 10.55-27.15L10.55-27.15Q13.75-27.15 15.8-24.5L15.8-24.5 15.8-37.7ZM11.9-3.9Q13.05-3.9 13.98-4.7 14.9-5.5 15.8-7L15.8-7 15.8-19.85Q14.2-22.55 12.15-22.55L12.15-22.55Q8.1-22.55 8.1-13.25L8.1-13.25Q8.1-8.2 9.1-6.05 10.1-3.9 11.9-3.9L11.9-3.9ZM39.8-27.15Q43.65-27.15 45.7-23.65 47.75-20.15 47.75-13.25L47.75-13.25Q47.75-6.75 45.45-3 43.15 0.75 39.15 0.75L39.15 0.75Q37.4 0.75 35.95-0.13 34.5-1 33.45-2.55L33.45-2.55 33.1 0 27.65 0 27.65-37 33.8-37.65 33.8-23.6Q34.85-25.3 36.37-26.23 37.9-27.15 39.8-27.15L39.8-27.15ZM37.5-3.9Q39.35-3.9 40.37-6 41.4-8.1 41.4-13.25L41.4-13.25Q41.4-18.6 40.47-20.58 39.55-22.55 37.85-22.55L37.85-22.55Q36.7-22.55 35.65-21.6 34.6-20.65 33.8-19.1L33.8-19.1 33.8-6.7Q34.45-5.45 35.42-4.67 36.4-3.9 37.5-3.9L37.5-3.9Z" opacity="1" transform="matrix(1,0,0,1,0,0)" fill="#ffffff" class="wordmark-text-0" data-fill-palette-color="quaternary" id="text-0"></path></svg></g></svg></g></svg></g></svg></g><g></g></svg></g></svg></g></svg></g><defs></defs></svg><rect width="342.85155851775386" height="342.85155851775386" fill="none" stroke="none" visibility="hidden"></rect></g></svg></g></svg>