<svg xmlns="http://www.w3.org/2000/svg" version="1.1" xmlns:xlink="http://www.w3.org/1999/xlink" xmlns:svgjs="http://svgjs.dev/svgjs" width="2000" height="2000" viewBox="0 0 2000 2000"><g transform="matrix(1,0,0,1,-0.28443113772425477,-0.28443113772459583)"><svg viewBox="0 0 334 334" data-background-color="#ffffff" preserveAspectRatio="xMidYMid meet" height="2000" width="2000" xmlns="http://www.w3.org/2000/svg" xmlns:xlink="http://www.w3.org/1999/xlink"><g id="tight-bounds" transform="matrix(1,0,0,1,0.04749999999998522,0.04750000000001364)"><svg viewBox="0 0 333.90454557049503 333.90454557049503" height="333.90454557049503" width="333.90454557049503"><g><svg></svg></g><g><svg viewBox="0 0 333.90454557049503 333.90454557049503" height="333.90454557049503" width="333.90454557049503"><g><path d="M0 166.952c0-92.205 74.747-166.952 166.952-166.952 92.205 0 166.952 74.747 166.953 166.952 0 92.205-74.747 166.952-166.953 166.953-92.205 0-166.952-74.747-166.952-166.953zM166.952 322.117c85.695 0 155.165-69.47 155.165-155.165 0-85.695-69.47-155.165-155.165-155.165-85.695 0-155.165 69.47-155.165 155.165 0 85.695 69.47 155.165 155.165 155.165z" data-fill-palette-color="tertiary" fill="#000000" stroke="transparent"></path><ellipse rx="160.27418187383762" ry="160.27418187383762" cx="166.95227278524752" cy="166.95227278524752" fill="#000000" stroke="transparent" stroke-width="0" fill-opacity="1" data-fill-palette-color="tertiary"></ellipse></g><g transform="matrix(1,0,0,1,88.67969320696294,71.17305217166896)"><svg viewBox="0 0 156.54515915656916 191.55844122715712" height="191.55844122715712" width="156.54515915656916"><g><svg viewBox="0 0 213.15844122715714 260.8339916473958" height="191.55844122715712" width="156.54515915656916"><g><svg viewBox="0 0 213.15844122715714 260.8339916473958" height="260.8339916473958" width="213.15844122715714"><g id="textblocktransform"><svg viewBox="0 0 213.15844122715714 260.8339916473958" height="260.8339916473958" width="213.15844122715714" id="textblock"><g><svg viewBox="0 0 213.15844122715714 177.9791979410248" height="177.9791979410248" width="213.15844122715714"><g transform="matrix(1,0,0,1,0,0)"><svg width="213.15844122715714" viewBox="1.7 -37.7 46.05 38.45" height="177.9791979410248" data-palette-color="#ffffff"><path d="M15.8-37.7L21.95-37.05 21.95 0 16.5 0 16.2-3.05Q13.85 0.75 10.15 0.75L10.15 0.75Q6.05 0.75 3.88-2.93 1.7-6.6 1.7-13.2L1.7-13.2Q1.7-17.4 2.83-20.58 3.95-23.75 5.95-25.45 7.95-27.15 10.55-27.15L10.55-27.15Q13.75-27.15 15.8-24.5L15.8-24.5 15.8-37.7ZM11.9-3.9Q13.05-3.9 13.98-4.7 14.9-5.5 15.8-7L15.8-7 15.8-19.85Q14.2-22.55 12.15-22.55L12.15-22.55Q8.1-22.55 8.1-13.25L8.1-13.25Q8.1-8.2 9.1-6.05 10.1-3.9 11.9-3.9L11.9-3.9ZM39.8-27.15Q43.65-27.15 45.7-23.65 47.75-20.15 47.75-13.25L47.75-13.25Q47.75-6.75 45.45-3 43.15 0.75 39.15 0.75L39.15 0.75Q37.4 0.75 35.95-0.13 34.5-1 33.45-2.55L33.45-2.55 33.1 0 27.65 0 27.65-37 33.8-37.65 33.8-23.6Q34.85-25.3 36.37-26.23 37.9-27.15 39.8-27.15L39.8-27.15ZM37.5-3.9Q39.35-3.9 40.37-6 41.4-8.1 41.4-13.25L41.4-13.25Q41.4-18.6 40.47-20.58 39.55-22.55 37.85-22.55L37.85-22.55Q36.7-22.55 35.65-21.6 34.6-20.65 33.8-19.1L33.8-19.1 33.8-6.7Q34.45-5.45 35.42-4.67 36.4-3.9 37.5-3.9L37.5-3.9Z" opacity="1" transform="matrix(1,0,0,1,0,0)" fill="#ffffff" class="wordmark-text-0" data-fill-palette-color="quaternary" id="text-0"></path></svg></g></svg></g><g transform="matrix(1,0,0,1,0,219.9958150741502)"><svg viewBox="0 0 213.15844122715714 40.83817657324559" height="40.83817657324559" width="213.15844122715714"><g transform="matrix(1,0,0,1,0,0)"><svg width="213.15844122715714" viewBox="3 -37.65 253.12 48.5" height="40.83817657324559" data-palette-color="#ffffff"><path d="M10.7-34.55Q15.05-34.55 18.23-33.23 21.4-31.9 23.38-28.13 25.35-24.35 25.35-17.45L25.35-17.45Q25.35-7.7 21.48-3.85 17.6 0 11.35 0L11.35 0 3 0 3-34.55 10.7-34.55ZM11.65-29.8L9.35-29.8 9.35-4.75 11.7-4.75Q13.95-4.75 15.48-5.8 17-6.85 17.88-9.65 18.75-12.45 18.75-17.45L18.75-17.45Q18.75-22.55 17.82-25.25 16.9-27.95 15.38-28.88 13.85-29.8 11.65-29.8L11.65-29.8ZM42.3-27.15Q45.15-27.15 46.8-25.1 48.45-23.05 48.45-19.6L48.45-19.6 48.45 0 42.3 0 42.3-18.9Q42.3-20.8 41.77-21.63 41.25-22.45 40.25-22.45L40.25-22.45Q38.15-22.45 36.1-18.5L36.1-18.5 36.1 0 29.95 0 29.95-37 36.1-37.65 36.1-23.3Q37.35-25.25 38.82-26.2 40.3-27.15 42.3-27.15L42.3-27.15ZM70.9-6.4Q70.9-5.1 71.25-4.48 71.59-3.85 72.4-3.45L72.4-3.45 71.15 0.65Q69.09 0.4 67.87-0.45 66.65-1.3 66.05-3.05L66.05-3.05Q63.75 0.75 59.6 0.75L59.6 0.75Q56.3 0.75 54.35-1.48 52.4-3.7 52.4-7.4L52.4-7.4Q52.4-11.7 55.07-13.95 57.75-16.2 62.85-16.2L62.85-16.2 64.9-16.2 64.9-18.05Q64.9-20.55 64.02-21.58 63.15-22.6 61.2-22.6L61.2-22.6Q58.85-22.6 55.35-21.3L55.35-21.3 53.95-25.3Q55.95-26.2 58.1-26.68 60.25-27.15 62.2-27.15L62.2-27.15Q70.9-27.15 70.9-18.35L70.9-18.35 70.9-6.4ZM61.25-3.7Q63.65-3.7 64.9-7L64.9-7 64.9-12.55 63.45-12.55Q60.9-12.55 59.72-11.4 58.55-10.25 58.55-7.85L58.55-7.85Q58.55-5.8 59.25-4.75 59.95-3.7 61.25-3.7L61.25-3.7ZM89.04-27.15Q91.89-27.15 93.54-25.1 95.19-23.05 95.19-19.6L95.19-19.6 95.19 0 89.04 0 89.04-18.9Q89.04-20.8 88.52-21.63 87.99-22.45 86.99-22.45L86.99-22.45Q84.89-22.45 82.84-18.5L82.84-18.5 82.84 0 76.69 0 76.69-26.45 82.04-26.45 82.49-23Q83.84-25.1 85.37-26.13 86.89-27.15 89.04-27.15L89.04-27.15ZM119.39-26.45L112.39 0.1Q111.09 4.9 108.19 7.65 105.29 10.4 100.44 10.85L100.44 10.85 99.74 6.5Q102.89 5.85 104.47 4.42 106.04 3 106.94 0L106.94 0 104.64 0 97.94-26.45 104.19-26.45 108.59-4.1 113.29-26.45 119.39-26.45ZM139.19-6.4Q139.19-5.1 139.54-4.48 139.89-3.85 140.69-3.45L140.69-3.45 139.44 0.65Q137.39 0.4 136.16-0.45 134.94-1.3 134.34-3.05L134.34-3.05Q132.04 0.75 127.89 0.75L127.89 0.75Q124.59 0.75 122.64-1.48 120.69-3.7 120.69-7.4L120.69-7.4Q120.69-11.7 123.36-13.95 126.04-16.2 131.14-16.2L131.14-16.2 133.19-16.2 133.19-18.05Q133.19-20.55 132.31-21.58 131.44-22.6 129.49-22.6L129.49-22.6Q127.14-22.6 123.64-21.3L123.64-21.3 122.24-25.3Q124.24-26.2 126.39-26.68 128.54-27.15 130.49-27.15L130.49-27.15Q139.19-27.15 139.19-18.35L139.19-18.35 139.19-6.4ZM129.54-3.7Q131.94-3.7 133.19-7L133.19-7 133.19-12.55 131.74-12.55Q129.19-12.55 128.01-11.4 126.84-10.25 126.84-7.85L126.84-7.85Q126.84-5.8 127.54-4.75 128.24-3.7 129.54-3.7L129.54-3.7ZM169.03-18.3Q172.38-17.55 174.31-15.63 176.23-13.7 176.23-9.9L176.23-9.9Q176.23-4.9 172.86-2.45 169.48 0 163.68 0L163.68 0 154.98 0 154.98-34.55 162.53-34.55Q168.48-34.55 171.73-32.3 174.98-30.05 174.98-25.75L174.98-25.75Q174.98-22.85 173.36-20.95 171.73-19.05 169.03-18.3L169.03-18.3ZM163.18-29.85L161.33-29.85 161.33-20.3 163.48-20.3Q168.53-20.3 168.53-25.2L168.53-25.2Q168.53-27.65 167.26-28.75 165.98-29.85 163.18-29.85L163.18-29.85ZM163.73-4.8Q166.63-4.8 168.13-6.03 169.63-7.25 169.63-10.15L169.63-10.15Q169.63-13.05 168.23-14.43 166.83-15.8 163.88-15.8L163.88-15.8 161.33-15.8 161.33-4.8 163.73-4.8ZM192.58-27.15Q195.43-27.15 197.08-25.1 198.73-23.05 198.73-19.6L198.73-19.6 198.73 0 192.58 0 192.58-18.9Q192.58-20.8 192.06-21.63 191.53-22.45 190.53-22.45L190.53-22.45Q188.43-22.45 186.38-18.5L186.38-18.5 186.38 0 180.23 0 180.23-37 186.38-37.65 186.38-23.3Q187.63-25.25 189.1-26.2 190.58-27.15 192.58-27.15L192.58-27.15ZM221.18-6.4Q221.18-5.1 221.53-4.48 221.88-3.85 222.68-3.45L222.68-3.45 221.43 0.65Q219.38 0.4 218.15-0.45 216.93-1.3 216.33-3.05L216.33-3.05Q214.03 0.75 209.88 0.75L209.88 0.75Q206.58 0.75 204.63-1.48 202.68-3.7 202.68-7.4L202.68-7.4Q202.68-11.7 205.35-13.95 208.03-16.2 213.13-16.2L213.13-16.2 215.18-16.2 215.18-18.05Q215.18-20.55 214.3-21.58 213.43-22.6 211.48-22.6L211.48-22.6Q209.13-22.6 205.63-21.3L205.63-21.3 204.23-25.3Q206.23-26.2 208.38-26.68 210.53-27.15 212.48-27.15L212.48-27.15Q221.18-27.15 221.18-18.35L221.18-18.35 221.18-6.4ZM211.53-3.7Q213.93-3.7 215.18-7L215.18-7 215.18-12.55 213.73-12.55Q211.18-12.55 210-11.4 208.83-10.25 208.83-7.85L208.83-7.85Q208.83-5.8 209.53-4.75 210.23-3.7 211.53-3.7L211.53-3.7ZM238.13-5L240.28-1.2Q237.82 0.75 234.53 0.75L234.53 0.75Q231.07 0.75 229.28-1.23 227.47-3.2 227.47-6.6L227.47-6.6 227.47-22 224.38-22 224.38-26.45 227.47-26.45 227.47-32.3 233.63-33.05 233.63-26.45 238.63-26.45 238.03-22 233.63-22 233.63-6.6Q233.63-4.2 235.68-4.2L235.68-4.2Q236.32-4.2 236.82-4.38 237.32-4.55 238.13-5L238.13-5ZM253.97-5L256.12-1.2Q253.67 0.75 250.37 0.75L250.37 0.75Q246.92 0.75 245.12-1.23 243.32-3.2 243.32-6.6L243.32-6.6 243.32-22 240.22-22 240.22-26.45 243.32-26.45 243.32-32.3 249.47-33.05 249.47-26.45 254.47-26.45 253.87-22 249.47-22 249.47-6.6Q249.47-4.2 251.52-4.2L251.52-4.2Q252.17-4.2 252.67-4.38 253.17-4.55 253.97-5L253.97-5Z" opacity="1" transform="matrix(1,0,0,1,0,0)" fill="#ffffff" class="slogan-text-1" data-fill-palette-color="quaternary" id="text-1"></path></svg></g></svg></g></svg></g></svg></g><g></g></svg></g></svg></g></svg></g><defs></defs></svg><rect width="333.90454557049503" height="333.90454557049503" fill="none" stroke="none" visibility="hidden"></rect></g></svg></g></svg>